:SAMPLES-PER-SECOND 30
:FULLY-SPECIFIED
:DEGREES
621
root  -60.4697 39.5931 2.9108 1.88309 -83.5821 -7.34167
RightUpLeg  -8.3529 -7.77959 2.73272
RightLeg  21.0932 1.14083 1.34274
RightFoot  -8.17507 0.0874371 -5.14525
RightToes  -4.65663e-010 0 -3.6325e-017
Spine  6.26593 1.1126 13.7895
Spine1  5.30589 3.78237 -5.02341
HEad  -16.2343 -7.47984 -1.75182
LeftShoulder1  -0.529463 4.83162 -33.7102
LeftArm  11.721 25.6197 -36.4673
LeftForeArm  27.3049 -16.0815 -7.40008
LeftHand  -0.127603 10.0021 -1.72801
RightShoulder  -0.8968 -6.09312 28.0551
RightArm  20.3818 13.1941 48.7981
RightForeArm  8.92887 26.6105 5.24859
RightHand  -0.152115 5.61412 -1.926
LeftUpLeg  -16.5304 -2.28651 5.20172
LeftLeg  54.7586 -1.67618 -2.07831
LeftFoot  -4.32742 0.362139 -5.49722
LeftToes  8.74931e-010 -1.05764e-010 1.2659e-011
622
root  -61.3833 39.6837 2.87358 -0.661743 -84.5405 -5.34644
RightUpLeg  -5.93098 -7.79794 2.4878
RightLeg  20.5887 2.04847 1.49116
RightFoot  -9.38824 0.0288774 -5.42426
RightToes  -4.65663e-010 0 -3.6325e-017
Spine  6.22063 1.39438 13.8494
Spine1  5.66499 4.1601 -5.9006
HEad  -16.1901 -7.48526 -2.0451
LeftShoulder1  -0.417353 4.55293 -33.6359
LeftArm  6.31022 25.183 -36.337
LeftForeArm  32.5323 -13.2715 -8.41967
LeftHand  -0.16816 10.3048 -2.50608
RightShoulder  -0.901082 -6.11156 27.9709
RightArm  18.9786 15.1265 49.1997
RightForeArm  9.39342 27.5866 5.44775
RightHand  -0.139778 6.09499 -1.74025
LeftUpLeg  -17.4712 -0.890168 5.03551
LeftLeg  47.6575 -2.15812 -2.11797
LeftFoot  -4.36582 0.434774 -6.69392
LeftToes  8.74931e-010 -1.05764e-010 1.2659e-011
623
root  -62.2502 39.7889 2.85511 -5.57126 -85.1421 -0.78479
RightUpLeg  -3.57132 -8.18595 1.87057
RightLeg  19.6731 2.95289 1.80365
RightFoot  -10.3051 -0.0164252 -5.83387
RightToes  -4.65663e-010 0 -3.6325e-017
Spine  5.63243 1.45298 13.5572
Spine1  6.62137 4.27289 -6.95804
HEad  -16.231 -7.22101 -2.09739
LeftShoulder1  -0.396633 4.50016 -33.6618
LeftArm  2.01973 23.974 -36.3021
LeftForeArm  36.3731 -10.7944 -8.93004
LeftHand  -0.12844 9.58122 -1.98191
RightShoulder  -0.934392 -6.18681 28.2507
RightArm  19.1211 17.2527 49.5459
RightForeArm  9.3041 27.9837 5.54516
RightHand  -0.106499 5.57181 -1.44924
LeftUpLeg  -17.8399 0.243941 4.38714
LeftLeg  38.8505 -2.72537 -2.01127
LeftFoot  -3.30492 0.510723 -6.97704
LeftToes  8.74931e-010 -1.05764e-010 1.2659e-011
624
root  -63.0954 39.8972 2.81002 -5.91614 -85.6812 -0.535461
RightUpLeg  -1.32554 -7.95502 1.84752
RightLeg  18.2545 3.37298 1.83518
RightFoot  -10.8351 -0.0469632 -5.91833
RightToes  -4.65663e-010 0 -3.6325e-017
Spine  5.3911 1.4024 12.6877
Spine1  6.52812 3.9449 -6.93759
HEad  -15.4508 -6.59653 -2.35916
LeftShoulder1  -0.397187 4.50521 -33.5117
LeftArm  0.398471 23.3973 -36.6855
LeftForeArm  37.8293 -9.67242 -9.05338
LeftHand  -0.173691 10.3532 -2.62949
RightShoulder  -0.870351 -6.035 27.7915
RightArm  19.7817 18.2659 50.4601
RightForeArm  8.7414 27.6964 5.50897
RightHand  -0.15364 5.68738 -1.93115
LeftUpLeg  -17.9915 1.27243 4.06729
LeftLeg  29.4489 -3.0278 -1.50465
LeftFoot  -2.75483 0.584115 -7.56396
LeftToes  8.74931e-010 -1.05764e-010 1.2659e-011
625
root  -63.9196 39.9653 2.76679 -3.05045 -86.3471 -3.17108
RightUpLeg  0.503301 -7.69976 2.05605
RightLeg  16.8553 3.77035 1.92384
RightFoot  -11.4236 -0.0812684 -5.96223
RightToes  -4.65663e-010 0 -3.6325e-017
Spine  5.08988 1.37228 12.3792
Spine1  6.23904 3.82117 -7.63072
HEad  -14.8557 -6.47129 -2.20862
LeftShoulder1  -0.389249 4.49431 -33.1498
LeftArm  0.368974 22.864 -36.9163
LeftForeArm  37.4493 -9.82279 -8.98872
LeftHand  -0.108617 9.51635 -1.41987
RightShoulder  -0.950352 -6.21869 28.446
RightArm  21.2489 19.0124 50.7026
RightForeArm  7.80905 27.0495 5.41011
RightHand  -0.189289 6.34942 -2.21365
LeftUpLeg  -18.1003 2.2935 3.95499
LeftLeg  20.003 -3.67607 -1.17172
LeftFoot  -3.23705 0.587513 -8.00969
LeftToes  8.74931e-010 -1.05764e-010 1.2659e-011
626
root  -64.7578 40.0541 2.73315 -5.01056 -87.4565 -1.05719
RightUpLeg  2.54007 -7.47036 1.94207
RightLeg  15.2256 4.66785 1.9503
RightFoot  -11.873 -0.108169 -5.96555
RightToes  -4.65663e-010 0 -3.6325e-017
Spine  4.62031 1.60682 11.232
Spine1  6.47673 3.8539 -7.49498
HEad  -14.5632 -5.99232 -2.49638
LeftShoulder1  -0.442869 4.62628 -33.3053
LeftArm  1.58327 22.1513 -37.0469
LeftForeArm  35.7061 -11.0088 -8.7623
LeftHand  -0.0592724 8.75803 -0.337429
RightShoulder  -0.961526 -6.24603 28.505
RightArm  23.2254 19.0995 51.1063
RightForeArm  7.13584 25.9706 5.19965
RightHand  -0.227843 5.99341 -2.65429
LeftUpLeg  -17.4133 3.00978 3.60113
LeftLeg  10.1807 -3.75978 -0.473144
LeftFoot  -2.83811 0.636268 -8.32155
LeftToes  8.74931e-010 -1.05764e-010 1.2659e-011
627
root  -65.6145 40.0754 2.7105 -3.6947 -88.5045 -2.41974
RightUpLeg  4.58745 -7.38186 1.83642
RightLeg  14.0871 5.58838 1.98717
RightFoot  -12.613 -0.15168 -6.04912
RightToes  -4.65663e-010 0 -3.6325e-017
Spine  4.28115 1.73923 10.1802
Spine1  6.73881 3.87127 -7.35265
HEad  -13.9672 -5.26058 -2.79806
LeftShoulder1  -0.393368 4.51058 -32.9342
LeftArm  4.38546 21.2291 -37.4679
LeftForeArm  33.0449 -12.4447 -8.6163
LeftHand  -0.320023 11.4942 -4.32105
RightShoulder  -0.941315 -6.17796 28.6324
RightArm  25.2825 18.4079 51.5471
RightForeArm  6.06997 24.612 4.94233
RightHand  -0.182097 6.26955 -2.12545
LeftUpLeg  -16.413 3.84753 3.33304
LeftLeg  1.36233 -3.725 0.0833814
LeftFoot  -1.90058 0.765956 -9.10314
LeftToes  8.74931e-010 -1.05764e-010 1.2659e-011
628
root  -66.492 40.0012 2.72219 34.5179 -88.9782 -40.5212
RightUpLeg  6.16165 -6.88304 2.51765
RightLeg  13.5476 5.61155 1.67957
RightFoot  -13.7263 -0.210191 -5.61933
RightToes  -4.65663e-010 0 -3.6325e-017
Spine  3.80801 1.65082 9.92496
Spine1  6.96403 3.68972 -7.28074
HEad  -14.0704 -5.31017 -2.71569
LeftShoulder1  -0.374608 4.46265 -32.9309
LeftArm  7.50561 20.2618 -37.7239
LeftForeArm  29.3517 -14.8719 -7.69482
LeftHand  -0.606344 13.2352 -7.17271
RightShoulder  -0.968736 -6.23316 28.9349
RightArm  27.4534 17.3676 51.9349
RightForeArm  6.33884 22.8266 4.66567
RightHand  -0.0595548 5.47852 -0.961683
LeftUpLeg  -16.5364 4.10588 3.67154
LeftLeg  -3.65371 -3.76686 0.264586
LeftFoot  -1.01422 0.928596 -10.1968
LeftToes  8.74931e-010 -1.05764e-010 1.2659e-011
629
root  -67.4243 39.8513 2.7907 87.7551 -89.0561 -94.0975
RightUpLeg  7.98455 -7.01376 2.56597
RightLeg  13.8608 6.53039 1.81442
RightFoot  -15.2928 -0.299735 -5.68656
RightToes  -4.65663e-010 0 -3.6325e-017
Spine  3.92695 1.58465 9.62372
Spine1  7.02818 3.55842 -6.9644
HEad  -13.9947 -4.805 -3.00324
LeftShoulder1  -0.388087 4.4906 -33.1874
LeftArm  10.2111 18.6369 -37.7888
LeftForeArm  24.5077 -16.9312 -6.7584
LeftHand  -0.0972206 9.74451 -1.53887
RightShoulder  -0.941852 -6.16027 28.8889
RightArm  28.2407 15.5521 52.4229
RightForeArm  6.28509 20.3248 5.04802
RightHand  -0.0960277 5.57697 -1.3336
LeftUpLeg  -17.1377 4.11188 3.77313
LeftLeg  -3.58858 -4.17933 0.291946
LeftFoot  -1.02917 0.880455 -9.69259
LeftToes  8.74931e-010 -1.05764e-010 1.2659e-011
630
root  -68.3941 39.638 2.86511 103.518 -88.3104 -110.23
RightUpLeg  9.674 -6.82921 2.97905
RightLeg  14.6276 6.64909 1.68939
RightFoot  -17.1014 -0.400704 -5.669
RightToes  -4.65663e-010 0 -3.6325e-017
Spine  4.0349 1.35405 9.01779
Spine1  7.31452 3.19315 -6.13753
HEad  -14.3242 -4.2666 -3.27618
LeftShoulder1  -0.439525 4.61845 -33.2837
LeftArm  12.3754 16.8794 -38.0875
LeftForeArm  21.2874 -18.8664 -5.7201
LeftHand  -0.104282 9.50785 -1.39927
RightShoulder  -0.937462 -6.13547 29.0516
RightArm  27.6095 13.8207 52.4449
RightForeArm  8.46162 17.2152 6.24842
RightHand  -0.0579067 5.30531 -0.952537
LeftUpLeg  -17.8629 4.03117 3.83372
LeftLeg  -0.437626 -4.46992 0.213493
LeftFoot  0.288381 0.885443 -8.68664
LeftToes  8.74931e-010 -1.05764e-010 1.2659e-011
631
root  -69.4718 39.3942 2.98144 131.434 -87.3606 -138.239
RightUpLeg  10.9642 -6.5424 2.91014
RightLeg  15.9645 7.61424 1.5724
RightFoot  -19.1767 -0.507404 -5.50832
RightToes  -4.65663e-010 0 -3.6325e-017
Spine  3.39519 1.64042 8.49185
Spine1  7.9478 3.352 -5.39927
HEad  -14.5816 -4.07222 -3.64165
LeftShoulder1  -0.48965 4.7351 -33.6147
LeftArm  13.4696 15.2132 -38.1778
LeftForeArm  18.8664 -20.7228 -4.82035
LeftHand  -0.0678075 8.68857 -0.657023
RightShoulder  -0.895303 -6.02826 28.8911
RightArm  24.55 11.4786 52.5303
RightForeArm  12.7583 13.5104 7.76792
RightHand  -0.103286 4.10618 -1.52905
LeftUpLeg  -18.3201 3.70305 3.7873
LeftLeg  3.82441 -3.58448 0.123921
LeftFoot  1.04369 0.864067 -7.93713
LeftToes  8.74931e-010 -1.05764e-010 1.2659e-011
632
root  -70.5967 39.2345 3.10318 150.905 -85.9361 -157.364
RightUpLeg  12.3092 -5.73927 2.49437
RightLeg  16.1958 8.59349 1.32369
RightFoot  -20.6002 -0.559764 -5.19009
RightToes  -4.65663e-010 0 -3.6325e-017
Spine  2.30709 1.89163 8.21689
Spine1  8.33448 3.77688 -6.09152
HEad  -13.6754 -2.47286 -4.37875
LeftShoulder1  -0.531808 4.84047 -33.6281
LeftArm  12.9962 14.7074 -37.9141
LeftForeArm  18.2375 -23.0802 -4.09268
LeftHand  -0.0512889 8.37248 -0.161298
RightShoulder  -0.891083 -5.97422 29.4539
RightArm  21.4704 8.68369 52.0281
RightForeArm  18.1112 9.59247 9.03825
RightHand  -0.0805109 3.13156 -1.32974
LeftUpLeg  -18.3194 3.45416 3.48375
LeftLeg  6.71132 -3.57706 -0.0232893
LeftFoot  3.87046 0.610163 -5.0438
LeftToes  8.74931e-010 -1.05764e-010 1.2659e-011
633
root  -71.7023 39.1589 3.23362 163.3 -84.4956 -169.698
RightUpLeg  14.1402 -4.41574 1.65548
RightLeg  15.7766 9.01507 1.00848
RightFoot  -21.4506 -0.521676 -4.25742
RightToes  -4.65663e-010 0 -3.6325e-017
Spine  1.79967 2.27757 7.10727
Spine1  8.47374 4.25785 -6.51651
HEad  -14.1004 -2.29792 -4.2692
LeftShoulder1  -0.506752 4.78189 -33.4859
LeftArm  12.2649 13.9677 -37.5999
LeftForeArm  17.6348 -24.7052 -4.33902
LeftHand  -0.0793321 9.38532 -0.763079
RightShoulder  -1.02297 -6.29216 30.1451
RightArm  19.6521 5.08556 50.7638
RightForeArm  22.2962 7.16405 9.36404
RightHand  -0.0472847 2.4015 -0.895119
LeftUpLeg  -17.8501 3.62734 2.70446
LeftLeg  7.75197 -3.55311 -0.167585
LeftFoot  11.5679 0.0390482 -0.468024
LeftToes  8.74931e-010 -1.05764e-010 1.2659e-011
